<svg xmlns="http://www.w3.org/2000/svg" viewBox="0 0 73.6 37.16">
  <defs>
    <style>
      .cls-1 {
        fill: #fff;
      }

      .cls-2, .cls-3 {
        fill: #050505;
      }

      .cls-2, .cls-4 {
        fill-rule: evenodd;
      }

      .cls-4 {
        fill: #f43939;
      }
    </style>
  </defs>
  <g id="Layer_2" data-name="Layer 2">
    <g id="Layer_1-2" data-name="Layer 1">
      <g>
        <path class="cls-1" d="M73.08,25.24a4,4,0,0,0-2.49-5.54,4.08,4.08,0,0,0,2.63-2.17,4,4,0,0,0,0-3.28A12.88,12.88,0,0,0,69.89,9.6a4,4,0,0,0-2.63-1h0a3.93,3.93,0,0,0-3.36,1.87V4a4,4,0,0,0-4-4h0A18.51,18.51,0,0,0,56,.62a20.14,20.14,0,0,0-3.38,1.25,4,4,0,0,0-1.72,5.58l3.24,5.62a4,4,0,0,0-5.64,2.25c0,.12-.07.24-.11.36a7.15,7.15,0,0,0-1.91-1.31,7.93,7.93,0,0,0-3.36-.75,7.53,7.53,0,0,0-2.56.44,4.23,4.23,0,0,0-2-.49,4.29,4.29,0,0,0-2.69.94v-.78a4.28,4.28,0,1,0-8.56,0V16.1a7.88,7.88,0,0,0-5.71-2.39,8.08,8.08,0,0,0-5,1.81A4.32,4.32,0,0,0,9,16.77l-.18.58-.59-1.2a4.36,4.36,0,0,0-3.87-2.44,4.4,4.4,0,0,0-1.91.45,4.33,4.33,0,0,0-2,5.78l4.1,8.4A4.11,4.11,0,0,0,2,31.11a4.19,4.19,0,0,0,.63,3.64,4.84,4.84,0,0,0,4,1.85H7a6.26,6.26,0,0,0,6.18-4.24c.37-1.11.77-2.41,1.19-3.76.08.17.16.34.25.5a7.44,7.44,0,0,0,6.94,4,8.57,8.57,0,0,0,6.3-2.3,4.28,4.28,0,0,0,6.46,1.31v.78a4.28,4.28,0,0,0,8.56.11h.19a7.61,7.61,0,0,0,5.38-2.17c.56-.59,2.16-2.22,2.38-6.41a4.11,4.11,0,0,0,1.06.14A4.34,4.34,0,0,0,53,24.4a3.94,3.94,0,0,0-1.08,3.25,4,4,0,0,0,1.7,2.81,13.33,13.33,0,0,0,5.31,2.15,5,5,0,0,0,.67,0,4,4,0,0,0,4-3.84v-.14l.07.12a4,4,0,0,0,5.91,1A13.23,13.23,0,0,0,73.08,25.24Z"/>
        <path class="cls-2" d="M33.15,28.77a1.52,1.52,0,0,1-3,0v-15a1.52,1.52,0,0,1,3,0Z"/>
        <path class="cls-3" d="M20.06,24.56H25.6a1.61,1.61,0,0,0,1.47-1.68h0V22.8c-.27-5.52-3.81-6.32-5.42-6.32s-5.46,1-5.46,7.13c0,2.31.52,6.72,5.38,6.72,4.19,0,5.13-2.42,5.13-3a1.3,1.3,0,0,0-1.62-1.39c-.69.23-1.65,1.62-3.18,1.62a2.42,2.42,0,0,1-2.49-2.44C19.41,24.72,19.59,24.58,20.06,24.56Zm-.66-2.7a2.39,2.39,0,1,1,4.78,0c0,.12-.06.18-.12.18H19.53C19.46,22.08,19.39,22,19.4,21.86Z"/>
        <path class="cls-3" d="M7.66,28.41,2.93,18.73a1.55,1.55,0,0,1,.72-2.08,1.53,1.53,0,0,1,2.07.72l3.66,7.49,2.25-7.27a1.55,1.55,0,1,1,3,.91s-2.53,8.28-4,13c-.5,1.57-1.82,2.35-3.8,2.3s-2.25-1.19-2-1.95a1.52,1.52,0,0,1,1.62-1.09C8.1,30.8,8.32,29.73,7.66,28.41Z"/>
        <path class="cls-3" d="M48.08,22.76c0-2-.25-4.7-2.75-5.89a4.94,4.94,0,0,0-4.49.11,7.34,7.34,0,0,0-.77.51,1.51,1.51,0,0,0-3,.35V32.89a1.51,1.51,0,0,0,3,0V28.94a3.83,3.83,0,0,0,2.64,1.29C48.49,30.38,48.11,24.13,48.08,22.76Zm-3,1.15c0,1.19,0,3.34-2.17,3.34s-2.18-2.15-2.18-3.34V22.82c0-1.2,0-3.34,2.18-3.34s2.17,2.14,2.17,3.34Z"/>
        <path class="cls-4" d="M52.85,15.5l5.28,2.57a1.21,1.21,0,0,1-.24,2.26l-5.7,1.42a1.22,1.22,0,0,1-1.5-1,10.36,10.36,0,0,1,.48-4.51A1.21,1.21,0,0,1,52.85,15.5Z"/>
        <path class="cls-4" d="M55,26.37,58.89,22a1.21,1.21,0,0,1,2.1.86l-.2,5.87a1.21,1.21,0,0,1-1.41,1.15,10.57,10.57,0,0,1-4.21-1.7A1.21,1.21,0,0,1,55,26.37Z"/>
        <path class="cls-4" d="M64.28,20.56l5.58,1.81a1.21,1.21,0,0,1,.72,1.68,10.54,10.54,0,0,1-2.79,3.58,1.21,1.21,0,0,1-1.8-.3l-3.11-5A1.21,1.21,0,0,1,64.28,20.56Z"/>
        <path class="cls-4" d="M70,17l-5.64,1.62A1.21,1.21,0,0,1,63,16.78l3.29-4.87a1.2,1.2,0,0,1,1.8-.23,10.27,10.27,0,0,1,2.67,3.67A1.22,1.22,0,0,1,70,17Z"/>
        <path class="cls-4" d="M56.76,3.3a16.74,16.74,0,0,0-2.9,1.07,1.19,1.19,0,0,0-.52,1.69l5.51,9.56a1.21,1.21,0,0,0,2.26-.6V4a1.2,1.2,0,0,0-1.3-1.2A15.58,15.58,0,0,0,56.76,3.3Z"/>
      </g>
    </g>
  </g>
</svg>
